<svg id="圖層_1" data-name="圖層 1" xmlns="http://www.w3.org/2000/svg" viewBox="0 0 512 512"><defs><style>.cls-1{fill:#397ecc;}.cls-2{fill:none;}.cls-3{fill:#d55c51;}.cls-4{fill:#000c14;}</style></defs><title>工作區域 1</title><rect class="cls-1" x="73" y="100.75" width="365" height="264"/><path class="cls-2" d="M81,227.25h79a7.49,7.49,0,0,1,6.55,3.85l30.26,54.31,38-130.75a7.49,7.49,0,0,1,14-1l34,74.61H379a7.5,7.5,0,0,1,0,15H278a7.51,7.51,0,0,1-6.83-4.39l-27.61-60.6L206.2,306.84a7.49,7.49,0,0,1-6.36,5.36,7.89,7.89,0,0,1-.84.05,7.48,7.48,0,0,1-6.55-3.85l-36.86-66.15H81v117.5H431v-250H81Z"/><path class="cls-3" d="M192.45,308.4a7.48,7.48,0,0,0,6.55,3.85,7.89,7.89,0,0,0,.84-.05,7.49,7.49,0,0,0,6.36-5.36l37.36-128.58,27.61,60.6a7.51,7.51,0,0,0,6.83,4.39H379a7.5,7.5,0,0,0,0-15H282.82l-34-74.61a7.49,7.49,0,0,0-14,1l-38,130.75L166.55,231.1a7.49,7.49,0,0,0-6.55-3.85H81v15h74.59Z"/><path class="cls-4" d="M431,89.75H81a20,20,0,0,0-20,20v250a20,20,0,0,0,20,20H244.05L239.51,403a189.57,189.57,0,0,0-21,3,158.62,158.62,0,0,0-18.75,5c-3.12,1.08-6.25,2.23-9.37,3.6a76.16,76.16,0,0,0-9.38,4.71l-.46.28a.9.9,0,0,0-.44.77.92.92,0,0,0,.9.95l18.75.49,18.75.28c12.5.16,25,.15,37.5.23,12.5-.08,25-.07,37.5-.23l18.75-.28,18.75-.49a.94.94,0,0,0,.77-.45.92.92,0,0,0-.31-1.27l-.46-.28a76.35,76.35,0,0,0-9.37-4.74c-3.13-1.37-6.25-2.52-9.38-3.61a156.78,156.78,0,0,0-18.75-5,187.34,187.34,0,0,0-21-2.94L268,379.75H431a20,20,0,0,0,20-20v-250A20,20,0,0,0,431,89.75Zm0,270H81v-250H431Z"/></svg>